<svg xmlns="http://www.w3.org/2000/svg" width="100" height="100" viewBox="0 0 100 100">
  <path stroke="#000" stroke-width="2.4" stroke-miterlimit="10" d="M82.022 7.123l.002 21.097h5.302V6.779l-5.304.344zM35.57 67.529l-5.715-1.288c-1.03-.235-1.035-.236-2.261.026l-2.013.43-.203 1.112a.55.55 0 01-.524.453l-6.947 1.304c-.48.09-.897.099-1.392.002l-5.504-.943c-1.919.292-3.907.529-5.807.894-2.584.497-3.042 1.349-3.099 3.944l-.061 9.472c.005.794.242.906.987 1.089l7.231 1.775c1.124.275 1.829.39 2.495.372-.195-.33-.292-.766-.294-1.316 0-2.472-.01-4.984.044-7.455.107-4.997.658-5.159 5.485-6.108l17.524-3.448c.984-.195 1.044-.092.054-.315zm-10.014-6.695c.125-.697 1.185-.507 1.06.19l-.423 2.317c-.103.565-.125.527.301.103 1.193-1.187 1.98-2.738 2.376-4.425.865-3.683-.132-8.126-2.991-10.719-1.687-1.529-3.646-2.131-5.896-2.13-2.314.053-4.496 1.174-6.103 2.941-2.817 3.098-3.496 7.91-1.513 11.623.624 1.169 1.527 2.183 2.76 2.836.627.331.125 1.285-.503.955-1.438-.763-2.488-1.935-3.207-3.284-2.198-4.115-1.46-9.42 1.665-12.856.835-.918 1.895-1.681 2.966-2.24.539-.282.601-.236-.069-.259a10.77 10.77 0 00-.673.002c-2.302.098-4.429 1.199-6.031 2.841-3.797 3.895-3.808 10.229-.253 14.299 1.543 1.768 3.696 2.908 6.265 3.147.706.064.608 1.137-.097 1.073-1.823-.17-3.458-.748-4.85-1.656l1.144 2.018 5.235.897c.73.143 1.421.081 1.132-.82l-1.677-5.224c-.217-.675.81-1.004 1.026-.33l1.679 5.231c.039.121.071.236.095.353.123.619.551.439 1.333.292l3.391-.636c.649-.122.674-.059.796-.728l1.062-5.811h0zm.532 4.634l1.282-.257c1.455-.311 1.459-.31 2.721-.022l9.323 2.102c1.081.139 1.095.962 1.108 3.253l-.001 1.437 1.092-.27V47.497c-1.042 6.45-3.477 7.668-6.348 9.103-1.862.924-3.951 1.931-5.865 4.682-.142.204-.283.418-.422.642-.824 1.319-1.533 2.312-2.89 3.251-.204.142-.539.408 0 .293zm3.707-5.71c1.75-2.021 3.539-2.915 5.182-3.736 3.057-1.527 5.592-2.796 6.318-11.306h-3.312a1.259 1.259 0 01-1.256-1.256V30.316c0-.698.573-1.211 1.256-1.211h3.276c.37 0 .351-.057.355-.29V9.69c0-3.395.736-3.805 3.981-4.068l39.833-3.237c2.427-.197 2.883.738 2.967 1.771l.009 24.064h.962c.921 0 1.671.75 1.671 1.671v13.135c0 .92-.75 1.671-1.671 1.671h-.962v31.329l9.238 1.093c.967.115 1.399.023 1.382 1.165-.008.515-.001 1.036.009 1.551.013.65-.008 1.009-.668 1.28l-1.851.759v2.068c0 1.794-5.157 1.692-5.296.163l-23.383 9.849.01 2.369c0 .723-.802 1.119-1.832 1.255a8.355 8.355 0 01-2.036.003c-1.043-.13-1.86-.521-1.86-1.168v-1.837l-38.065-6.514v.709c0 .723-.73 1.124-1.663 1.266a6.436 6.436 0 01-1.802.004c-.923-.132-1.641-.518-1.641-1.155v-1.697l-1.716-.294a5.723 5.723 0 01-.69-.154c-.577-.175-.648-.102-1.282.063-1.187.31-1.607.418-2.371.453-.3 1.346-2.285 1.128-2.285-.271l-5.907-1.444c-.596.916-2.023.572-2.121-.524-1.145-.322-1.601-.878-1.608-2.082 0-3.164.061-6.332.061-9.495.072-3.234.935-4.425 4.132-5.011 1.683-.308 3.412-.528 5.106-.786L7.66 63.051c-3.368-4.566-3.165-10.961.843-15.073 1.784-1.83 4.167-3.056 6.762-3.167l5.656.325c2.644.173 4.125.956 5.681 2.366 3.153 2.86 4.276 7.692 3.32 11.763-.039.166-.081.33-.127.493h0zM15.317 85.21c.002-.139-.001-.227-.003-.391l.004-1.319c-.011-.771.123-.864.678-1.009 5.044-1.319 10.107-2.591 15.158-3.888a2.566 2.566 0 01-.651-.842c-.337-.683-.386-1.469-.356-2.257.037-.991.478-1.103 1.583-1.361.359-.084.797-.186 1.241-.295l6.474-1.6.001-1.699c-.005-.818-.009-1.357-.058-1.698-.095-.654-.448-.528-.97-.46-.64.083-1.376.265-1.952.366l-18.343 3.609c-3.998.786-4.451.92-4.54 5.054l-.044 7.432c.003.516.104.816.314.925.239.123.55.103 1.128-.045.199-.051.33-.061.336-.522zm17.928-10.319l31.604 4.426c2.073.29 2.438.161 4.223-.446l11.87-4.037v-1.913l-24.991-2.992c-1.463-.175-1.782-.209-3.283.162l-19.423 4.8h0zm59.051 8.896v.083c-.003.106-.035.138.169.184.801.178 1.778.207 2.575.022.41-.095.393-.179.393-.559v-1.188l-3.003 1.265c-.156.066-.134.028-.134.193zm-72.269 3.587v.771c0 .479-.097.676.312.777.698.174 1.623.203 2.417-.053.263-.085.214-.345.214-.598v-.394l-2.943-.503zm43.171 7.388v1.075c0 .451-.076.518.38.614 1.219.26 1.864.221 2.831-.023.449-.113.354-.36.354-.811v-1.212c-.34.144-.448.195-.79.336-.635.263-1.448.233-2.119.115l-.656-.094zm-44.76-11.784l45.182 7.287c1.013.161 1.465.147 2.395-.23l14.928-6.06v-4.712l-11.878 4.295c-2.183.73-2.396.657-4.635.333l-31.212-4.506a5.754 5.754 0 01-.48-.076l-14.3 3.669zm63.586.557l5.302-2.152V44.697h-5.302v38.838zm6.379-2.589l6.651-2.7c.797-.324.78-.252-.062-.352l-6.589-.78v3.832zm9.373-2.639L66.364 91.058c-1.132.459-1.721.461-2.914.271L16.394 83.74l-.003 1.072c.005.405.04.633.144.74.12.123.399.197.877.279l46.357 7.914c1.002.172 1.373.177 2.316-.222l31.251-13.165c.571-.215.623-.278.619-.502-.008-.454-.03-.957-.011-1.405.009-.2-.006-.222-.168-.144h0zM63.91 45.795v1.858c0 .711-1.081.711-1.081 0v-1.858h-.333a1.51 1.51 0 01-1.506-1.507v-2.533c-1.069 0-1.934-.26-2.709-1.035-.831-.832-1.035-1.697-1.035-2.825l-9.166-.06v32.279l4.33-1.071c1.646-.407 1.953-.393 3.619-.193l24.913 2.982V38.036l-11.774-.077c0 1.097-.233 1.96-1.035 2.762a3.517 3.517 0 01-2.384 1.033v2.534a1.51 1.51 0 01-1.506 1.507h-.333zm.758-3.995H62.07v2.488c0 .233.193.426.426.426h1.748a.427.427 0 00.425-.426V41.8zM61.23 29.719c-.036-2.089.13-4.125.673-5.956 2.588-8.729 13.054-7.848 13.115-2.514.036 3.098-3.012 4.455-5.598 4.911-1.937.342-3.941.696-4.182 3.558h.406a3.533 3.533 0 013.524 3.524v.647l11.774.077V7.192L48.08 9.315v24.452l9.166.061v-.584a3.533 3.533 0 013.524-3.524h.46v-.001zm2.927 0c.242-3.769 2.701-4.203 5.078-4.623 2.014-.355 4.735-1.345 4.707-3.838-.048-4.138-8.865-4.403-11.003 2.809-.51 1.721-.666 3.657-.63 5.652h1.848zm5.011 5.249v1.914l11.774.077v-1.914l-11.774-.077zm-11.922 1.85v-1.914l-16.018-.105a.539.539 0 11.004-1.078l.382.003v-3.169c0-.36.051-.369-.364-.369h-3.267c-.084 0-.177.039-.175.167V43.46c0 .095.081.175.175.175h3.456c.095 0 .175-.08.175-.175v-5.668l-.391-.002c-.708-.003-.704-1.08.004-1.077l16.019.105h0zm8.398-6.018H60.77a2.452 2.452 0 00-2.443 2.442v4.988c0 .671.275 1.282.718 1.725a2.434 2.434 0 001.725.718h4.874c.671 0 1.282-.275 1.725-.718a2.437 2.437 0 00.719-1.725v-4.988a2.453 2.453 0 00-2.444-2.442zm16.38-1.499v14.315h7.341c.323 0 .59-.267.59-.59V29.891a.593.593 0 00-.59-.59h-7.341zm-35.025 8.527l-4.304-.028v33.645l4.304-1.063V37.828zm-4.304-4.097l4.304.028V9.384l-4.304.278v24.069zm38.247 44.384v-2.141l-11.697 3.978c-2.034.691-2.348.74-4.544.433l-31.708-4.439c-.47-.066-.749-.104-.99-.136-.759-.119-.829-.074-.759.593.034.323.099.624.226.881.221.447.647.846 1.47.964l31.58 4.564c2.057.297 2.158.406 4.176-.27l12.246-4.427h0zM42.742 8.58l44.584-2.882c0-.415.025-1.042-.009-1.458-.039-.475-.308-.899-1.805-.778L45.68 6.699c-1.707.138-2.907.015-2.938 1.881h0z"/>
</svg>
