<svg xmlns="http://www.w3.org/2000/svg" width="100" height="100" viewBox="0 0 100 100">
  <path d="M94.444 86.11H11.111c-1.222 0-2.222-1-2.222-2.222v-1.112c0-1.221 1-2.221 2.222-2.221.778 0 1.555.444 1.889 1.11h80.445l1.999-1.999V35.889l-2.667-2.667c-.333-.445-.555-1-.555-1.556V18.333h-78.89V25c0 1.223-1 2.222-2.222 2.222s-2.222-1-2.222-2.222v-8.89c0-1.223 1-2.222 2.222-2.222h83.333c1.222 0 2.222.999 2.222 2.222v14.667l2.668 2.666c.443.446.667 1.002.667 1.557v45.556c0 .556-.224 1.11-.666 1.555L96 85.443c-.445.447-1 .667-1.556.667z"/>
  <path d="M11.111 66.11a2.228 2.228 0 01-2.222-2.222V47.222A2.23 2.23 0 0111.111 45c1.222 0 2.222 1 2.222 2.222v16.667c0 1.222-1 2.221-2.222 2.221zM19.444 43.889H1.667C.778 43.889 0 43.112 0 42.222V30c0-.889.778-1.667 1.667-1.667h17.777c.89 0 1.667.778 1.667 1.667v12.222c0 .89-.777 1.667-1.667 1.667zM22.778 79.444H7.222c-.889 0-1.666-.778-1.666-1.667v-8.889c0-.889.777-1.667 1.666-1.667h15.556c.889 0 1.666.778 1.666 1.667v8.889c0 .889-.777 1.667-1.666 1.667zM48.889 56.11c-.667 0-1.111.445-1.111 1.111v1.111H50v-1.111c0-.666-.444-1.111-1.111-1.111zM45.556 56.11c-.668 0-1.112.445-1.112 1.111v1.111h2.223v-1.111c0-.666-.444-1.111-1.111-1.111zM52.222 56.11c-.667 0-1.11.445-1.11 1.111v1.111h2.222v-1.111c-.001-.666-.445-1.111-1.112-1.111zM55.556 56.11c-.668 0-1.112.445-1.112 1.111v1.111h2.223v-1.111c0-.666-.444-1.111-1.111-1.111zM58.889 56.11c-.667 0-1.111.445-1.111 1.111v1.111H60v-1.111c0-.666-.444-1.111-1.111-1.111zM62.222 56.11c-.667 0-1.111.445-1.111 1.111v1.111h2.222v-1.111c0-.666-.444-1.111-1.111-1.111zM65.555 56.11c-.665 0-1.111.445-1.111 1.111v1.111h2.223v-1.111c0-.666-.444-1.111-1.112-1.111zM68.889 56.11c-.667 0-1.111.445-1.111 1.111v1.111H70v-1.111c0-.666-.445-1.111-1.111-1.111zM72.222 56.11c-.666 0-1.111.445-1.111 1.111v1.111h2.222v-1.111c0-.666-.444-1.111-1.111-1.111zM75.556 56.11c-.668 0-1.111.445-1.111 1.111v1.111h2.222v-1.111c0-.666-.444-1.111-1.111-1.111zM78.889 56.11c-.667 0-1.111.445-1.111 1.111v1.111H80v-1.111c0-.666-.444-1.111-1.111-1.111zM82.223 56.11c-.668 0-1.111.445-1.111 1.111v1.111h2.221v-1.111c-.001-.666-.444-1.111-1.11-1.111zM85.556 56.11c-.666 0-1.111.445-1.111 1.111v1.111h2.223v-1.111c-.001-.666-.445-1.111-1.112-1.111zM88.889 56.11c-.666 0-1.111.445-1.111 1.111v1.111H90v-1.111c0-.666-.444-1.111-1.111-1.111zM85.556 72.777c.667 0 1.111-.444 1.111-1.111v-1.11h-2.223v1.11c0 .667.446 1.111 1.112 1.111zM88.889 72.777c.667 0 1.111-.444 1.111-1.111v-1.11h-2.223v1.11c0 .667.446 1.111 1.112 1.111zM82.223 72.777c.666 0 1.109-.444 1.109-1.111v-1.11h-2.221v1.11c0 .667.444 1.111 1.112 1.111zM78.889 72.777c.667 0 1.111-.444 1.111-1.111v-1.11h-2.223v1.11c0 .667.445 1.111 1.112 1.111zM75.556 72.777c.667 0 1.111-.444 1.111-1.111v-1.11h-2.222v1.11c0 .667.443 1.111 1.111 1.111zM72.222 72.777c.667 0 1.111-.444 1.111-1.111v-1.11h-2.222v1.11c0 .667.445 1.111 1.111 1.111zM68.889 72.777c.666 0 1.111-.444 1.111-1.111v-1.11h-2.222v1.11c0 .667.444 1.111 1.111 1.111zM65.555 72.777c.668 0 1.112-.444 1.112-1.111v-1.11h-2.223v1.11c0 .667.446 1.111 1.111 1.111zM62.222 72.777c.667 0 1.111-.444 1.111-1.111v-1.11h-2.222v1.11c0 .667.445 1.111 1.111 1.111zM58.889 72.777c.667 0 1.111-.444 1.111-1.111v-1.11h-2.222v1.11c0 .667.444 1.111 1.111 1.111zM55.556 72.777c.667 0 1.111-.444 1.111-1.111v-1.11h-2.223v1.11c0 .667.444 1.111 1.112 1.111zM52.222 72.777c.667 0 1.111-.444 1.111-1.111v-1.11h-2.222v1.11c0 .667.444 1.111 1.111 1.111zM48.889 72.777c.667 0 1.111-.444 1.111-1.111v-1.11h-2.222v1.11c0 .667.445 1.111 1.111 1.111zM45.556 72.777c.667 0 1.111-.444 1.111-1.111v-1.11h-2.223v1.11c0 .667.444 1.111 1.112 1.111zM91.111 59.443H43.333c-.667 0-1.111.446-1.111 1.112v7.777c0 .667.444 1.112 1.111 1.112h47.778c.667 0 1.111-.445 1.111-1.112v-7.777c.001-.666-.444-1.112-1.111-1.112zm0 7.224c-1.223 0-2.223-1-2.223-2.222 0-1.223 1-2.223 2.223-2.223v4.445zM33.555 36.222c0 9.667 13.334 13.333 19.89 3.445C60.222 49.888 73 45.556 73 36.222s-12.667-13.889-19.556-3.445C47 22.444 33.555 26.555 33.555 36.222zm3.556 0c0-7.001 9.889-9.223 14.444 0-4.666 8.778-14.444 7-14.444 0zm18.333 0c4.111-9.333 14.333-6.777 14.222 0 0 6.778-10.221 8.888-14.222 0z"/>
  <path d="M40.778 35.222h5.889v1.89h-5.889zM62.111 37.111H60.11v-2h2.001V33.11h2v2.001H66v2h-1.889V39h-2z"/>
</svg>
