<svg xmlns="http://www.w3.org/2000/svg" width="100" height="100" viewBox="0 0 100 100">
  <path d="M93.104 43.104V50h-5.173v34.482h-6.897V50H18.965v34.482h-6.896V50H6.896v-6.896z"/>
  <path d="M53.448 22.415v5.171H5.172v24.139H0v-29.31zM68.966 17.242v17.242h-4.311v1.724H62.93v3.448h-1.724v-3.448h-1.724v-1.724H55.17V17.242c0-.947 3.087-1.724 6.897-1.724 3.811 0 6.899.776 6.899 1.724z"/>
  <path d="M15.518 42.242v-2.586h15.517v.862h6.896v-.862h6.897v.862h6.896v-.862h6.896v.862h6.897v-.862h18.965v2.586z"/>
  <path d="M100 22.415v29.31h-5.172V27.586H70.69v-5.171z"/>
</svg>
