<svg xmlns="http://www.w3.org/2000/svg" width="153.623" height="188.976" viewBox="0 0 153.623 188.976">
  <path d="M117.242.002c-2.575-.047-5.077.733-7.394 2.326-3.833 2.636-5.98 7.548-6.559 15.016-.017.235-.037.698-.064 1.369-1.027 24.69-5.458 43.57-9.16 55.41-3.624-1.917-9.07-3.78-16.077-3.248-15.545 1.183-30.76 11.833-42.84 29.99-14.73 22.135-21.094 33.002-15.847 37 3.696 2.815 7.975-1.003 15.744-7.931 6.374-5.685 15.102-13.471 27.574-21.266 8.742-5.463 14.846-3.014 17.154-1.096l-1.421 2.446.084-.03c-11.033 18.826-25.18 33.124-42.108 42.504-2.857 1.584-5.56 3.366-8.424 5.25-2.113 1.391-4.297 2.831-6.595 4.215l-.582.357c-2.957 1.788-4.283 1.605-8.678.999l-1.084-.149c-2.818-.393-5.623.342-7.692 2.012-3.74 3.02-3.385 6.471-3.125 8.992l.05.478c.192 1.991 1.36 3.849 3.288 5.229 2.45 1.754 5.694 2.44 8.453 1.785a24.47 24.47 0 002.297-.656l.266-.094.2.13c1.013.642 3.126 1.982 7.04 3.523 8.83 3.48 16.97 3.403 25.588 3.333 1.24-.01 2.494-.021 3.758-.021 3.219 0 6.459-.214 9.633-.637 17.02-2.303 42.703-23.078 61.293-43.24.684 4.39 2.438 13.218 4.922 21.93 1.543 5.41 6.237 21.875 12.777 23.013.122.021.261.036.414.036.456 0 1.033-.129 1.646-.58 3.66-2.708 7.008-16.986 10.532-44.936.116-.927.209-1.67.279-2.188 2.235-16.765 1.889-38.54-11.568-49.794.862-3.343 1.509-7.429 1.629-8.198h.001l.01-.08a82.206 82.206 0 01.115-.904c3.314-25.823 2.232-47.54-3.06-61.186-.26-.615-.834-1.28-1.668-1.306-10.71-.342-15.28-4.887-15.28-15.192 0-.37.051-.736.102-1.092.058-.407.11-.757.08-1.1-.069-.82-.524-1.289-1.011-1.439-1.575-.626-3.147-.952-4.692-.98zm.889 2.305c.066.007.131.017.197.025-.066-.008-.131-.018-.197-.025zm-2.319.017l-.095.012.096-.012zm3.499.182c.073.016.145.03.218.049-.073-.018-.146-.033-.218-.05zm1.378.392l.006.002c-.012.102-.028.214-.04.309-.056.39-.126.877-.126 1.404 0 4.278.766 7.731 2.34 10.4-1.576-2.67-2.346-6.123-2.346-10.404 0-.527.07-1.014.125-1.404.013-.094.03-.205.041-.307zm16.977 19.127h.004c5.123 13.28 6.147 34.578 2.885 59.987-.05.386-.088.68-.112.89-.087.555-.634 4.022-1.363 7.102l-.006-.004c.73-3.08 1.276-6.547 1.363-7.102.024-.21.062-.504.112-.89 3.262-25.407 2.239-46.702-2.883-59.983zM82.848 73.121c.092.008.18.022.271.031-.092-.009-.179-.023-.271-.03zm1.996.25c.208.034.407.076.611.113-.203-.037-.403-.08-.611-.113zm1.933.389zm1.815.5c.156.049.31.097.463.148-.152-.05-.308-.1-.463-.148zm1.627.57c.148.057.3.111.443.17-.143-.059-.296-.113-.443-.17zm1.615.684c.074.034.154.068.227.103-.073-.035-.153-.069-.227-.103zm1.516.761l.005.004c-1.136 3.59-5.371 16.314-11.931 28.366-.225.363-.425.697-.586.976l-.006-.004c.161-.279.361-.613.586-.976 6.56-12.052 10.796-24.776 11.932-28.366zm1.158 3.553a185.981 185.981 0 01-6.551 16.637 185.987 185.987 0 006.55-16.637zm26.13 4.611c6.275.11 11.958 1.61 16.698 4.424-5.924-3.516-13.322-4.977-21.504-4.238-7.277.66-14.943 3.101-21.035 6.7-2.69 1.59-4.983 3.45-6.91 5.318a185.987 185.987 0 00.006-.014c1.924-1.865 4.213-3.722 6.898-5.309 6.092-3.598 13.758-6.04 21.035-6.7a44.887 44.887 0 014.813-.18zm1.27 2.332zm-5.34.073l-.117.008c.04-.004.078-.005.117-.008zm7.807.135zm-10.604.164l-.093.013c.031-.004.062-.01.093-.013zm12.942.187zm2.082.45zm-19.797.277zm22.121.414zm-24.953.351zm27.418.617zm-30.191.307c-.382.14-.755.291-1.13.44.376-.149.748-.3 1.13-.44zm31.334.242c.123.063.247.123.369.188-.122-.065-.246-.125-.37-.188zm1.187.64c.092.054.186.103.277.157-.091-.054-.185-.103-.277-.156zm-35.174.179c-.346.15-.68.314-1.02.472.34-.158.674-.321 1.02-.472zm-2.525 1.187c-.242.124-.47.26-.707.387.238-.127.464-.263.707-.387zm43.15 2.834zm1.795 2.01zm1.615 2.215c6.117 9.275 8.051 23.51 5.594 41.926a294.2 294.2 0 00-.281 2.2c-4.17 33.08-7.544 41.87-9.64 43.42-.149.11-.27.151-.352.14a2.982 2.982 0 01-.746-.24c-.492-.23-.985-.594-1.473-1.08.489.486.98.851 1.473 1.079.246.114.493.193.74.236.082.012.203-.03.351-.138 2.097-1.55 5.471-10.341 9.641-43.42.117-.932.211-1.68.281-2.201 2.457-18.412.526-32.647-5.588-41.922zm-72.078 4.002c3.06-.012 5.403.898 6.979 1.808-3.15-1.817-9.367-3.634-18.239 1.91h-.001c-12.633 7.895-21.443 15.756-27.877 21.493-6.241 5.567-10.163 9.062-12.465 8.078 2.303.975 6.223-2.52 12.459-8.082 6.434-5.737 15.244-13.597 27.877-21.492h.002c4.435-2.772 8.208-3.704 11.265-3.715zm19.889 2.076c4.277.034 9.185.82 13.873 3.219-8.96-4.583-18.735-3.226-23.338-2.159l.004-.005a41.12 41.12 0 019.46-1.055zm19.219 9.89zm3.457 4.413c3.45 5.441 5.592 12.677 6.396 21.64-25.44 28.071-49.064 42.303-61.232 43.95a70.92 70.92 0 01-9.338.619c-1.27 0-2.528.008-3.776.02-8.395.07-16.322.14-24.75-3.18a47.388 47.388 0 01-.005-.004c8.427 3.32 16.354 3.25 24.75 3.18 1.248-.012 2.505-.02 3.775-.02 3.121 0 6.262-.21 9.338-.62 12.168-1.645 35.792-15.878 61.232-43.949-.803-8.96-2.942-16.195-6.39-21.636zm-100.78 59.144l.147.006c.397.015.668.186 1.262.562-.59-.372-.86-.543-1.256-.558l-.147-.004-.142.031c-.168.038-.351.102-.555.178l-.248.086c-.581.19-1.24.404-2.11.603-1.594.377-3.463.154-5.105-.56 1.641.712 3.507.933 5.1.557.87-.2 1.528-.414 2.11-.604l.25-.086c.203-.076.384-.14.552-.178l.142-.033zm1.414.572z" opacity=".96" fill-rule="evenodd" fill="#999"/>
</svg>
