<?xml version="1.0" encoding="UTF-8" standalone="no"?>
<svg
   xmlns:dc="http://purl.org/dc/elements/1.1/"
   xmlns:cc="http://creativecommons.org/ns#"
   xmlns:rdf="http://www.w3.org/1999/02/22-rdf-syntax-ns#"
   xmlns:svg="http://www.w3.org/2000/svg"
   xmlns="http://www.w3.org/2000/svg"
   xmlns:sodipodi="http://sodipodi.sourceforge.net/DTD/sodipodi-0.dtd"
   xmlns:inkscape="http://www.inkscape.org/namespaces/inkscape"
   version="1.1"
   x="0px"
   y="0px"
   viewBox="0 0 54.197792 60.000004"
   enable-background="new 0 0 100 100"
   xml:space="preserve"
   id="svg16"
   sodipodi:docname="icon.svg"
   width="54.197792"
   height="60.000004"
   inkscape:version="0.92.2 5c3e80d, 2017-08-06"><metadata
     id="metadata22"><rdf:RDF><cc:Work
         rdf:about=""><dc:format>image/svg+xml</dc:format><dc:type
           rdf:resource="http://purl.org/dc/dcmitype/StillImage" /><dc:title></dc:title></cc:Work></rdf:RDF></metadata><defs
     id="defs20" /><sodipodi:namedview
     pagecolor="#ffffff"
     bordercolor="#666666"
     borderopacity="1"
     objecttolerance="10"
     gridtolerance="10"
     guidetolerance="10"
     inkscape:pageopacity="0"
     inkscape:pageshadow="2"
     inkscape:window-width="1318"
     inkscape:window-height="683"
     id="namedview18"
     showgrid="false"
     fit-margin-top="0"
     fit-margin-left="0"
     fit-margin-right="0"
     fit-margin-bottom="0"
     inkscape:zoom="1.888"
     inkscape:cx="37.511"
     inkscape:cy="30.136005"
     inkscape:window-x="0"
     inkscape:window-y="0"
     inkscape:window-maximized="0"
     inkscape:current-layer="svg16" /><path
     d="M 45.046968,59.997185 C 43.501073,59.710804 41.958696,59.399092 40.40858,59.142264 32.931008,57.90597 25.452733,56.681639 17.973051,55.456603 12.139883,54.501061 6.306013,53.551852 0.472845,52.598422 0.333525,52.575905 0.19913,52.529465 0,52.478803 1.692955,42.152901 3.380282,31.859366 5.060572,21.605939 c 0.173095,-0.03589 0.230793,-0.06614 0.282159,-0.05629 1.293992,0.229386 2.85396,0.102027 3.803872,0.800741 0.916138,0.675493 1.208852,2.203797 1.760505,3.364098 0.615684,1.293992 1.228554,2.590799 1.817499,3.89816 0.232905,0.517878 0.515064,0.814814 1.148339,0.879548 1.240516,0.125952 2.468366,0.386298 3.884791,0.62061 -1.306658,-2.746303 -2.543655,-5.346953 -3.866496,-8.128438 1.104009,0.162541 2.05744,0.39826 3.015797,0.424295 1.545894,0.04151 2.35719,0.787372 2.908139,2.206612 0.749376,1.932896 1.737285,3.772912 2.604872,5.660072 0.211795,0.46229 0.471438,0.718415 1.02872,0.783853 1.267254,0.147061 2.523953,0.397557 3.965006,0.63609 -1.309472,-2.752636 -2.548581,-5.353285 -3.869311,-8.129141 1.066013,0.157615 1.989188,0.373632 2.921509,0.415147 1.528304,0.06825 2.445146,0.695195 3.003835,2.204501 0.717712,1.942043 1.735877,3.771505 2.599242,5.660072 0.229387,0.501694 0.522804,0.739524 1.106121,0.804259 1.241923,0.13721 2.470476,0.39052 3.893234,0.626943 -1.310879,-2.758265 -2.546469,-5.357508 -3.878458,-8.157991 1.726027,0.286381 3.293031,0.524915 4.846666,0.831701 0.202648,0.04011 0.375743,0.411629 0.493954,0.662125 1.080086,2.272754 2.155246,4.548322 3.208594,6.833742 0.215314,0.467216 0.474956,0.7156 1.027313,0.779632 1.270772,0.148467 2.528878,0.394037 3.957266,0.626942 -1.312991,-2.758265 -2.550692,-5.360322 -3.870718,-8.135474 1.440349,0.22235 2.72449,0.42148 4.008631,0.619906 0.02603,-0.04855 0.05136,-0.0971 0.0774,-0.14495 -1.094862,-0.66916 -2.189021,-1.337617 -3.4225,-2.091215 0.930914,-0.424294 1.741507,-0.793001 2.551395,-1.162411 1.650737,-0.753598 3.312732,-1.483975 4.945879,-2.273458 0.53758,-0.260346 0.951319,-0.254014 1.442459,0.08233 0.55095,0.377854 1.15819,0.671271 1.741507,1.001982 0,0.0584 0,0.117507 0,0.175909 -1.186335,1.942748 -2.377596,3.88268 -3.552673,5.833168 -0.11399,0.189279 -0.139321,0.439774 -0.17591,0.666346 -1.048422,6.341898 -2.091215,12.6845 -3.13823,19.026398 -0.580502,3.516084 -1.169448,7.032872 -1.755579,10.548252 -0.17591,-0.0028 -0.35182,-0.0028 -0.528433,-0.0028 z M 46.008842,38.641039 C 32.741729,36.467498 19.600568,34.314362 6.418595,32.154894 6.265202,33.123102 6.133621,33.94847 5.990079,34.850535 c 13.215043,2.165098 26.362538,4.320344 39.570545,6.484737 0.149875,-0.902065 0.287789,-1.729544 0.448218,-2.694233 z m -2.94684,17.869615 c 0.137914,-0.746561 0.235016,-1.380539 0.377151,-2.004667 0.118211,-0.520693 -0.06403,-0.733896 -0.584021,-0.816221 C 39.532549,53.163444 36.21278,52.616012 32.892308,52.0721 25.52943,50.868173 18.166551,49.66284 10.803673,48.45821 8.532326,48.086688 6.259572,47.716574 3.933342,47.336609 c -0.147061,0.928804 -0.282159,1.780207 -0.426405,2.691419 13.217154,2.167208 26.346354,4.318233 39.555065,6.482626 z"
     id="path2"
     inkscape:connector-curvature="0"
     style="stroke-width:0.70363897" /><path
     d="M 10.729791,6.401707 C 12.014636,4.266867 13.27626,2.170726 14.582918,0 17.229304,1.588817 19.825028,3.147377 22.562184,4.791078 22.089339,5.015539 21.743852,5.184412 21.39344,5.344842 19.267043,6.318678 17.133609,7.279849 15.01636,8.271276 14.549143,8.490812 14.180436,8.519661 13.723775,8.219906 12.773159,7.595074 11.77962,7.03357 10.729791,6.401702 Z"
     id="path4"
     inkscape:connector-curvature="0"
     style="stroke-width:0.70363897" /><path
     d="m 35.124251,21.055693 c 2.699863,-1.231368 5.22663,-2.390965 7.762545,-3.528749 0.213906,-0.0971 0.55306,-0.156208 0.731785,-0.05488 1.340432,0.766966 2.656237,1.580373 4.111362,2.457811 -2.329045,1.066716 -4.557469,2.006074 -6.704272,3.103751 -1.124415,0.574873 -2.008186,0.578391 -3.017204,-0.199833 -0.847885,-0.652274 -1.825943,-1.135674 -2.884216,-1.778096 z"
     id="path6"
     inkscape:connector-curvature="0"
     style="stroke-width:0.70363897" /><path
     d="m 30.969263,9.846724 c -2.760376,1.258106 -5.328658,2.438109 -7.91031,3.588559 -0.194908,0.08655 -0.526322,0.0394 -0.721933,-0.07318 -1.290474,-0.743746 -2.559839,-1.521971 -3.979782,-2.375485 1.058273,-0.486918 1.993409,-0.918249 2.929249,-1.348172 1.593742,-0.731081 3.183966,-1.470606 4.788263,-2.177763 0.232904,-0.102731 0.597389,-0.163948 0.793001,-0.05348 1.321434,0.747968 2.614019,1.545894 4.101512,2.439516 z"
     id="path8"
     inkscape:connector-curvature="0"
     style="stroke-width:0.70363897" /><path
     d="m 39.35101,14.888297 c -2.058144,0.940062 -4.077588,1.673957 -5.897902,2.747007 -1.737988,1.024498 -3.144562,0.902065 -4.632759,-0.337747 -0.572762,-0.477067 -1.280623,-0.79089 -2.050404,-1.253181 0.424295,-0.213906 0.720527,-0.375039 1.02661,-0.515064 2.153838,-0.984391 4.317528,-1.948376 6.459405,-2.957394 0.501695,-0.235719 0.875327,-0.262458 1.364356,0.05629 1.17367,0.765559 2.395188,1.45794 3.730694,2.260089 z"
     id="path10"
     inkscape:connector-curvature="0"
     style="stroke-width:0.70363897" /></svg>