<?xml version="1.0" encoding="UTF-8" standalone="no"?>
<!-- Generator: Adobe Illustrator 16.0.0, SVG Export Plug-In . SVG Version: 6.00 Build 0)  -->

<svg
   xmlns:dc="http://purl.org/dc/elements/1.1/"
   xmlns:cc="http://creativecommons.org/ns#"
   xmlns:rdf="http://www.w3.org/1999/02/22-rdf-syntax-ns#"
   xmlns:svg="http://www.w3.org/2000/svg"
   xmlns="http://www.w3.org/2000/svg"
   xmlns:sodipodi="http://sodipodi.sourceforge.net/DTD/sodipodi-0.dtd"
   xmlns:inkscape="http://www.inkscape.org/namespaces/inkscape"
   version="1.1"
   id="Calque_1"
   x="0px"
   y="0px"
   width="50.002674"
   height="59.99992"
   viewBox="0 0 50.002676 59.999918"
   enable-background="new 0 0 219.111 262.919"
   xml:space="preserve"
   sodipodi:docname="icon.svg"
   inkscape:version="0.92.2 5c3e80d, 2017-08-06"><metadata
     id="metadata9"><rdf:RDF><cc:Work
         rdf:about=""><dc:format>image/svg+xml</dc:format><dc:type
           rdf:resource="http://purl.org/dc/dcmitype/StillImage" /><dc:title></dc:title></cc:Work></rdf:RDF></metadata><defs
     id="defs7" /><sodipodi:namedview
     pagecolor="#ffffff"
     bordercolor="#666666"
     borderopacity="1"
     objecttolerance="10"
     gridtolerance="10"
     guidetolerance="10"
     inkscape:pageopacity="0"
     inkscape:pageshadow="2"
     inkscape:window-width="1412"
     inkscape:window-height="895"
     id="namedview5"
     showgrid="false"
     fit-margin-top="0"
     fit-margin-left="0"
     fit-margin-right="0"
     fit-margin-bottom="0"
     inkscape:zoom="0.89761483"
     inkscape:cx="109.55625"
     inkscape:cy="131.46142"
     inkscape:window-x="0"
     inkscape:window-y="0"
     inkscape:window-maximized="0"
     inkscape:current-layer="Calque_1" /><path
     d="M 49.63485,32.26619 C 48.661097,28.5825 45.996342,26.4109 44.700136,25.54349 45.695796,17.64051 45.346185,10.97896 43.704704,6.74895 43.570519,6.42992 43.259018,6.08373 42.787546,6.06912 39.774778,5.97302 38.545663,4.75603 38.545663,1.869 c 0,-0.0808 0.01369,-0.17731 0.02693,-0.27065 0.01962,-0.1392 0.04016,-0.28297 0.02716,-0.43929 C 38.562553,0.71269 38.297381,0.44066 38.010298,0.33432 37.455303,0.11228 36.891179,0 36.333673,0 35.46421,0 34.636281,0.26654 33.871565,0.79233 c -1.295979,0.89091 -2.017564,2.50798 -2.20629,4.94339 -0.0057,0.0753 -0.01255,0.22341 -0.02145,0.43769 -0.298949,7.17524 -1.539474,12.73524 -2.630752,16.35777 -0.979686,-0.44409 -2.29917,-0.83523 -3.909387,-0.83523 -0.255134,0 -0.515744,0.01 -0.774073,0.0294 -2.842527,0.21633 -8.373314,1.72477 -13.477813,9.39544 -4.3938666,6.60313 -6.7811236,10.41438 -4.7546594,11.95774 0.3204004,0.24418 0.6837035,0.36786 1.0791835,0.36786 1.1636195,-2.2e-4 2.3543954,-1.06206 4.3272309,-2.82176 1.9418,-1.73162 4.60085,-4.10313 8.391342,-6.47213 1.017796,-0.63601 1.987669,-0.95869 2.882463,-0.95869 0.707665,0 1.21816,0.19877 1.54244,0.38612 l -0.04108,0.0705 c -3.364204,5.84434 -7.703074,10.26719 -12.906158,13.15011 -0.891142,0.49383 -1.7270582,1.04427 -2.6120388,1.6271 -0.644224,0.42401 -1.3101274,0.86239 -2.0091207,1.28366 L 6.5745433,49.81947 C 6.0592555,50.1312 5.7760525,50.1903 5.433288,50.1903 c -0.3073927,0 -0.6900932,-0.0527 -1.2202145,-0.1262 L 3.8810346,50.0187 c -0.9780884,-0.13647 -1.9821923,0.12802 -2.7074292,0.7136 -1.33888127,1.08124 -1.20994521,2.33157 -1.12482458,3.15882 l 0.01460515,0.14354 c 0.15746174,1.6287 1.88680253,2.63691 3.39843533,2.63691 0.2617516,0 0.5182545,-0.0292 0.7569574,-0.0856 0.2514824,-0.0577 0.4539006,-0.1189 0.6227726,-0.17321 0.3585107,0.2241 1.0123193,0.60885 2.1136387,1.04244 l 0.419898,0.16568 c 2.96165,1.16955 6.02371,2.37904 9.072535,2.37904 1.006842,0 2.020531,-0.0671 3.014593,-0.19945 5.212212,-0.70516 10.583255,-3.90939 15.983052,-9.53077 0.360793,3.00135 1.415102,8.73958 4.229103,9.22908 0.102921,0.0178 0.209265,0.0269 0.31538,0.0269 2.884517,0 5.675241,-6.25899 6.816268,-15.25325 0.03126,-0.0395 0.06184,-0.0815 0.09128,-0.12711 2.776576,-4.24987 3.697385,-8.24643 2.737553,-11.87924 z M 33.239887,6.24005 c 0.0078,-0.18644 0.01301,-0.31561 0.0178,-0.38088 0.149018,-1.92354 0.64605,-3.15037 1.518935,-3.75078 0.679596,-0.46714 1.415102,-0.6157 2.179362,-0.43724 -0.0048,0.0625 -0.0078,0.12871 -0.0078,0.1974 0,3.64444 1.763344,5.53763 5.387246,5.77724 1.454581,4.01893 1.723864,10.35095 0.754903,17.89131 -0.01871,0.14696 -0.03263,0.25399 -0.03948,0.31835 h -2.28e-4 c -0.0016,0.0148 -0.114103,0.99703 -0.233454,2.0082 -0.253993,-0.20515 -0.518255,-0.39707 -0.795068,-0.57325 -4.037867,-2.56731 -9.389284,-1.16339 -12.744589,0.81858 -0.245092,0.14491 -0.479231,0.29758 -0.704242,0.45458 1.057276,-2.55978 1.643079,-4.51824 1.683928,-4.65585 1.178909,-3.66452 2.650834,-9.69896 2.982645,-17.66766 z M 19.048248,32.79791 c -3.90528,2.44089 -6.622978,4.86466 -8.607681,6.63462 -1.3931936,1.24258 -2.7092543,2.41647 -3.2640217,2.41647 -0.037882,0 -0.065495,-0.006 -0.1111361,-0.0413 -0.018713,-0.0142 -0.4420339,-0.37243 0.6816496,-2.62733 0.9356423,-1.87722 2.6314362,-4.46507 4.4349442,-7.175 4.728645,-7.10609 9.716531,-8.49313 12.26878,-8.6871 0.218165,-0.0167 0.437926,-0.0249 0.652896,-0.0249 1.443171,0 2.600857,0.3754 3.427189,0.77636 -0.44637,1.36832 -1.646959,4.80692 -3.42582,8.11841 -0.589455,-0.33364 -1.383381,-0.59197 -2.327467,-0.59197 -1.198763,0 -2.453437,0.40438 -3.729333,1.20173 z m 0.201962,25.41866 c -0.922863,0.12301 -1.865808,0.18531 -2.802135,0.18531 -2.744398,0 -5.663146,-1.15267 -8.4860466,-2.26745 L 7.5409893,55.96807 C 6.4421802,55.53539 5.8563769,55.16456 5.5752278,54.98587 5.3687018,54.85511 5.2057632,54.75173 4.9604423,54.7426 l -0.1049745,-0.004 -0.102236,0.0235 c -0.089228,0.0205 -0.1652207,0.0486 -0.2261516,0.0712 l -0.060018,0.021 c -0.1770874,0.058 -0.3603364,0.11799 -0.6097649,0.17504 -0.1239156,0.0292 -0.2569593,0.044 -0.3950236,0.044 -0.8701473,0 -1.7489664,-0.57987 -1.8085281,-1.19329 l -0.01529,-0.15381 C 1.5581276,52.95012 1.5439786,52.48595 2.177705,51.97408 2.5622312,51.66372 3.101937,51.52155 3.6642352,51.60051 l 0.3308979,0.0452 c 0.5707417,0.079 1.0216757,0.14103 1.438607,0.14103 0.6916907,0 1.2617478,-0.17435 1.9712385,-0.60338 L 7.580925,51.07588 c 0.7218138,-0.43496 1.4014095,-0.88247 2.0586412,-1.31515 0.8589648,-0.56572 1.6700068,-1.09972 2.5079778,-1.56412 5.517094,-3.05704 10.095123,-7.74849 13.620897,-13.94061 0.706296,-0.24304 3.005238,-0.85943 5.121843,0.51072 2.775891,1.79712 4.287524,6.41097 4.38086,13.3491 -5.478985,6.005 -10.868284,9.40367 -16.020934,10.1006 z m 20.739766,-0.28845 c -0.01461,0 -0.0283,-10e-4 -0.04176,-0.003 -0.298265,-0.052 -1.342076,-0.51164 -2.256952,-4.24987 -0.56846,-2.3245 -0.789591,-4.73777 -0.819714,-5.28204 -0.05979,-7.77245 -1.78023,-12.80758 -5.113855,-14.96594 -1.718387,-1.1125 -3.497248,-1.21702 -4.814222,-1.06116 0.664762,-0.88749 1.709943,-2.03262 3.146268,-2.88109 4.746217,-2.80373 8.932645,-2.20812 11.07481,-0.84596 3.415551,2.17183 4.828142,7.42786 4.085562,15.20054 -1.305564,10.61999 -4.355529,14.08894 -5.260135,14.08894 z m 7.04744,-17.28679 c 0.09493,-5.02691 -0.837971,-8.81306 -2.787302,-11.31442 0.0712,-0.5785 0.159744,-1.32793 0.234367,-1.96599 1.202643,0.94431 2.910076,2.68141 3.605874,5.31353 0.644909,2.44043 0.287996,5.11112 -1.052939,7.96688 z"
     id="path2"
     inkscape:connector-curvature="0"
     style="fill:#070606;stroke-width:0.22820543" /></svg>