<?xml version="1.0" encoding="UTF-8" standalone="no"?>
<svg
   xmlns:dc="http://purl.org/dc/elements/1.1/"
   xmlns:cc="http://creativecommons.org/ns#"
   xmlns:rdf="http://www.w3.org/1999/02/22-rdf-syntax-ns#"
   xmlns:svg="http://www.w3.org/2000/svg"
   xmlns="http://www.w3.org/2000/svg"
   xmlns:sodipodi="http://sodipodi.sourceforge.net/DTD/sodipodi-0.dtd"
   xmlns:inkscape="http://www.inkscape.org/namespaces/inkscape"
   version="1.1"
   x="0px"
   y="0px"
   viewBox="0 0 32.271317 60"
   enable-background="new 0 0 100 100"
   xml:space="preserve"
   id="svg8"
   sodipodi:docname="noun_Balloon_117988.svg"
   width="32.271317"
   height="60"
   inkscape:version="0.92.2 5c3e80d, 2017-08-06"><metadata
     id="metadata14"><rdf:RDF><cc:Work
         rdf:about=""><dc:format>image/svg+xml</dc:format><dc:type
           rdf:resource="http://purl.org/dc/dcmitype/StillImage" /><dc:title></dc:title></cc:Work></rdf:RDF></metadata><defs
     id="defs12" /><sodipodi:namedview
     pagecolor="#ffffff"
     bordercolor="#666666"
     borderopacity="1"
     objecttolerance="10"
     gridtolerance="10"
     guidetolerance="10"
     inkscape:pageopacity="0"
     inkscape:pageshadow="2"
     inkscape:window-width="1144"
     inkscape:window-height="572"
     id="namedview10"
     showgrid="false"
     fit-margin-top="0"
     fit-margin-left="0"
     fit-margin-right="0"
     fit-margin-bottom="0"
     inkscape:zoom="1.888"
     inkscape:cx="28.707618"
     inkscape:cy="34.768697"
     inkscape:window-x="0"
     inkscape:window-y="0"
     inkscape:window-maximized="0"
     inkscape:current-layer="svg8" /><path
     d="M 32.271316,16.135206 C 32.271316,7.238012 25.0324,0 16.135206,0 7.238012,0 0,7.238012 0,16.135206 0,24.221345 6.176497,36.030923 14.879291,37.086109 l -1.234214,1.732421 c -0.147383,0.207058 -0.167275,0.478314 -0.05063,0.704361 0.115736,0.225142 0.349016,0.366195 0.603093,0.366195 h 1.050664 c -1.431327,2.414178 -2.290304,5.58516 0.180837,10.541005 2.484705,4.987492 -1.353567,8.231713 -1.51632,8.365533 -0.290244,0.236897 -0.334549,0.662768 -0.09765,0.953916 C 13.94889,59.915006 14.144195,60 14.341307,60 c 0.150999,0 0.301998,-0.05063 0.42768,-0.153712 0.04883,-0.03978 4.849152,-4.048042 1.873475,-10.021097 -2.419603,-4.855481 -1.333675,-7.6458 0.207962,-9.936105 h 1.22246 c 0.0054,0 0.01356,0 0.01808,0 0.375237,0 0.67814,-0.303806 0.67814,-0.678139 0,-0.198017 -0.08499,-0.374333 -0.218813,-0.500015 L 17.392025,37.0843 C 26.093915,36.030019 32.271316,24.221345 32.271316,16.135206 Z M 11.544652,5.207209 c -3.579674,1.607644 -6.254257,4.841918 -7.155731,8.651256 -0.07324,0.311944 -0.351729,0.521715 -0.659152,0.521715 -0.05154,0 -0.103982,-0.0054 -0.156424,-0.01808 -0.364388,-0.0868 -0.58953,-0.452094 -0.503632,-0.816481 0.998222,-4.216221 3.958528,-7.795895 7.920672,-9.575334 0.341783,-0.153711 0.742338,-9.04e-4 0.895145,0.340879 0.153712,0.340878 9.04e-4,0.743241 -0.340878,0.896048 z"
     id="path2"
     inkscape:connector-curvature="0"
     style="stroke-width:0.90418637" /></svg>