<?xml version="1.0" encoding="UTF-8" standalone="no"?>
<svg
   xmlns:dc="http://purl.org/dc/elements/1.1/"
   xmlns:cc="http://creativecommons.org/ns#"
   xmlns:rdf="http://www.w3.org/1999/02/22-rdf-syntax-ns#"
   xmlns:svg="http://www.w3.org/2000/svg"
   xmlns="http://www.w3.org/2000/svg"
   xmlns:sodipodi="http://sodipodi.sourceforge.net/DTD/sodipodi-0.dtd"
   xmlns:inkscape="http://www.inkscape.org/namespaces/inkscape"
   version="1.1"
   x="0px"
   y="0px"
   viewBox="0 0 51.14024 60"
   id="svg10"
   sodipodi:docname="icon.svg"
   width="51.14024"
   height="60"
   inkscape:version="0.92.2 5c3e80d, 2017-08-06">
  <metadata
     id="metadata16">
    <rdf:RDF>
      <cc:Work
         rdf:about="">
        <dc:format>image/svg+xml</dc:format>
        <dc:type
           rdf:resource="http://purl.org/dc/dcmitype/StillImage" />
        <dc:title></dc:title>
      </cc:Work>
    </rdf:RDF>
  </metadata>
  <defs
     id="defs14" />
  <sodipodi:namedview
     pagecolor="#ffffff"
     bordercolor="#666666"
     borderopacity="1"
     objecttolerance="10"
     gridtolerance="10"
     guidetolerance="10"
     inkscape:pageopacity="0"
     inkscape:pageshadow="2"
     inkscape:window-width="1190"
     inkscape:window-height="687"
     id="namedview12"
     showgrid="false"
     fit-margin-top="0"
     fit-margin-left="0"
     fit-margin-right="0"
     fit-margin-bottom="0"
     inkscape:zoom="1.888"
     inkscape:cx="28.128292"
     inkscape:cy="20.501369"
     inkscape:window-x="0"
     inkscape:window-y="0"
     inkscape:window-maximized="0"
     inkscape:current-layer="svg10" />
  <g
     transform="matrix(0.9090534,0,0,0.9090534,-19.88255,-881.20076)"
     id="g4">
    <path
       d="m 44.1284,971.36684 c 0,16.3191 0,26.61353 0,42.93756 -1.3386,-0.7333 -2.9004,-1.1468 -4.5,-1.25 -3.073,-0.1982 -6.4432,0.6318 -9.625,2.4687 -3.1818,1.837 -5.6038,4.3646 -6.9688,7.125 -1.3648,2.7605 -1.6661,5.9161 -0.1562,8.5313 1.5099,2.6152 4.3956,3.9581 7.4688,4.1563 3.073,0.1981 6.4744,-0.6631 9.6562,-2.5 3.1818,-1.837 5.6038,-4.3334 6.9688,-7.0938 0.8358,-1.484 1.2367,-3.7777 1.156,-5.375 v -36.71886 l 27.75,3.6876 c 1.1167,0.1406 2.2411,-0.8433 2.25,-1.9688 v -10 c 0.01,-0.9688 -0.7887,-1.8788 -1.75,-2 l -30,-4 c -1.2824,-0.099 -2.2353,1.0446 -2.2498,2 z"
       style="color:#000000;text-indent:0;text-transform:none;direction:ltr;baseline-shift:baseline;display:inline;overflow:visible;visibility:visible;fill:#000000;fill-opacity:1;stroke:none;enable-background:accumulate"
       marker="none"
       visibility="visible"
       display="inline"
       overflow="visible"
       id="path2"
       inkscape:connector-curvature="0" />
  </g>
</svg>
