<?xml version="1.0" encoding="UTF-8" standalone="no"?>
<svg
   xmlns:dc="http://purl.org/dc/elements/1.1/"
   xmlns:cc="http://creativecommons.org/ns#"
   xmlns:rdf="http://www.w3.org/1999/02/22-rdf-syntax-ns#"
   xmlns:svg="http://www.w3.org/2000/svg"
   xmlns="http://www.w3.org/2000/svg"
   xmlns:sodipodi="http://sodipodi.sourceforge.net/DTD/sodipodi-0.dtd"
   xmlns:inkscape="http://www.inkscape.org/namespaces/inkscape"
   data-name="Layer 1"
   viewBox="0 0 60 58.711216"
   x="0px"
   y="0px"
   version="1.1"
   id="svg12"
   sodipodi:docname="icon.svg"
   width="60"
   height="58.711216"
   inkscape:version="0.92.2 5c3e80d, 2017-08-06">
  <metadata
     id="metadata18">
    <rdf:RDF>
      <cc:Work
         rdf:about="">
        <dc:format>image/svg+xml</dc:format>
        <dc:type
           rdf:resource="http://purl.org/dc/dcmitype/StillImage" />
        <dc:title>17</dc:title>
      </cc:Work>
    </rdf:RDF>
  </metadata>
  <defs
     id="defs16" />
  <sodipodi:namedview
     pagecolor="#ffffff"
     bordercolor="#666666"
     borderopacity="1"
     objecttolerance="10"
     gridtolerance="10"
     guidetolerance="10"
     inkscape:pageopacity="0"
     inkscape:pageshadow="2"
     inkscape:window-width="1197"
     inkscape:window-height="742"
     id="namedview14"
     showgrid="false"
     fit-margin-top="0"
     fit-margin-left="0"
     fit-margin-right="0"
     fit-margin-bottom="0"
     inkscape:zoom="1.888"
     inkscape:cx="41.9"
     inkscape:cy="28.500001"
     inkscape:window-x="0"
     inkscape:window-y="0"
     inkscape:window-maximized="0"
     inkscape:current-layer="svg12" />
  <title
     id="title2">17</title>
  <g
     data-name="Group"
     id="g6"
     transform="matrix(0.71599045,0,0,0.71599045,-5.7995226,-6.443914)">
    <path
       data-name="Compound Path"
       d="M 88.9,43.7 H 84.7 V 30.4 a 3.1,3.1 0 0 0 -3,-3 H 53 V 9 H 47 V 27.4 H 18.3 a 3.1,3.1 0 0 0 -3,3 v 13.3 h -4.2 a 3,3 0 0 0 -3,3 v 19.8 a 3,3 0 0 0 3,3 h 4.2 V 88 a 3.1,3.1 0 0 0 3,3 h 63.4 a 3.1,3.1 0 0 0 3,-3 V 69.5 h 4.2 a 3,3 0 0 0 3,-3 V 46.7 a 3,3 0 0 0 -3,-3 z m -61.5,9.1 a 9.7,9.7 0 1 1 9.7,9.7 9.7,9.7 0 0 1 -9.7,-9.7 z M 63.2,76.9 H 36.8 v -6 H 63.2 Z M 62.9,62.5 a 9.8,9.8 0 1 1 9.7,-9.7 9.7,9.7 0 0 1 -9.7,9.7 z"
       id="path4"
       inkscape:connector-curvature="0" />
  </g>
</svg>
