<?xml version="1.0" standalone="no"?>
<!DOCTYPE svg PUBLIC "-//W3C//DTD SVG 20010904//EN"
 "http://www.w3.org/TR/2001/REC-SVG-20010904/DTD/svg10.dtd">
<svg version="1.0" xmlns="http://www.w3.org/2000/svg"
 width="756.000000pt" height="756.000000pt" viewBox="0 0 756.000000 756.000000"
 preserveAspectRatio="xMidYMid meet">
<metadata>
Created by potrace 1.11, written by Peter Selinger 2001-2013
</metadata>
<g transform="translate(0.000000,756.000000) scale(0.100000,-0.100000)"
fill="#000000" stroke="none">
<path d="M5240 7538 c-222 -78 -341 -246 -389 -548 -6 -36 -15 -148 -21 -250
-35 -632 -111 -1164 -240 -1695 -49 -201 -113 -432 -123 -441 -3 -3 -23 4 -46
15 -61 32 -137 58 -236 83 -129 32 -392 32 -545 -1 -403 -86 -765 -300 -1115
-662 -163 -168 -270 -304 -444 -564 -461 -687 -652 -1038 -668 -1226 -8 -89 2
-133 39 -175 42 -48 77 -64 140 -64 101 0 196 64 498 331 458 405 669 572
1020 801 252 165 325 193 510 193 117 0 129 -2 187 -29 89 -41 91 -45 52 -113
-190 -339 -452 -692 -718 -968 -307 -319 -570 -525 -964 -754 -86 -50 -254
-155 -373 -232 -256 -167 -343 -215 -404 -224 -26 -4 -102 1 -175 10 -144 19
-207 15 -290 -16 -69 -26 -157 -105 -193 -173 -34 -67 -43 -213 -18 -299 29
-100 112 -184 223 -228 76 -29 214 -32 289 -6 l51 18 69 -41 c137 -80 346
-157 526 -194 149 -31 241 -38 565 -43 495 -8 728 13 945 88 532 182 1240 695
1963 1425 l231 233 17 -102 c50 -291 166 -750 263 -1037 69 -208 182 -441 256
-530 61 -73 136 -120 191 -120 151 0 272 369 407 1245 44 283 107 780 121 948
14 183 7 581 -15 722 -61 403 -186 690 -397 910 l-78 82 24 114 c78 374 120
910 112 1440 -6 421 -32 670 -97 949 -30 125 -90 307 -109 332 -15 17 -37 23
-135 34 -324 38 -472 166 -516 449 -6 38 -10 113 -8 166 2 68 -1 100 -10 112
-24 28 -104 49 -207 53 -86 4 -109 1 -165 -18z m263 -87 c24 -9 25 -13 26
-109 4 -402 211 -628 603 -659 l78 -6 21 -56 c56 -148 114 -436 146 -721 21
-195 24 -824 5 -1065 -29 -357 -93 -840 -116 -862 -2 -2 -26 10 -54 26 -126
78 -296 139 -467 166 -119 20 -369 19 -504 -1 -347 -50 -683 -189 -916 -377
-44 -36 -81 -64 -82 -63 -1 1 20 56 48 122 371 869 583 1845 634 2919 20 422
127 623 368 690 54 16 164 13 210 -4z m-1463 -2821 c118 -15 229 -44 320 -86
l78 -36 -49 -147 c-70 -205 -184 -488 -275 -682 -71 -152 -146 -298 -166 -325
-6 -8 -31 0 -84 26 -135 69 -289 76 -457 24 -112 -36 -176 -70 -357 -188 -306
-201 -548 -388 -878 -678 -317 -279 -375 -328 -449 -378 -84 -56 -140 -71
-179 -45 -108 71 -5 343 334 879 141 223 386 589 456 681 203 267 440 496 678
656 329 222 723 336 1028 299z m1749 -570 c613 -125 937 -615 967 -1460 10
-260 -15 -546 -102 -1155 -106 -750 -227 -1255 -322 -1338 -19 -18 -22 -18
-57 -2 -115 55 -260 355 -391 809 -106 365 -192 759 -219 1006 -61 544 -201
894 -454 1132 -160 151 -368 252 -596 289 -111 18 -348 15 -469 -5 -54 -9
-100 -15 -102 -14 -8 9 142 202 215 277 222 227 529 383 896 455 204 40 455
43 634 6z m-1214 -810 c373 -53 637 -248 805 -594 90 -185 136 -340 171 -588
l22 -148 -89 -97 c-49 -53 -177 -185 -284 -291 -448 -447 -895 -806 -1305
-1051 -353 -210 -602 -305 -870 -331 -158 -16 -805 -17 -935 -1 -272 32 -498
104 -702 221 l-87 51 -69 -20 c-172 -52 -341 0 -403 122 -17 32 -22 61 -23
136 -1 112 16 155 85 215 67 57 122 70 253 60 61 -5 157 -9 213 -9 101 0 102
0 190 45 48 25 187 110 308 189 121 79 279 178 350 219 171 99 362 224 487
319 469 355 892 839 1218 1395 51 87 69 109 94 117 34 11 179 38 236 44 75 8
268 6 335 -3z"/>
</g>
</svg>
