<svg xmlns="http://www.w3.org/2000/svg" width="153.623" height="188.976" viewBox="0 0 153.623 188.976">
  <path d="M141.015 91.479c.862-3.343 1.51-7.428 1.63-8.197h.002l.01-.081a82.206 82.206 0 01.115-.905c3.314-25.823 2.23-47.54-3.062-61.185-.26-.615-.833-1.281-1.667-1.307-10.71-.342-15.28-4.885-15.28-15.19 0-.37.052-.736.103-1.092.058-.407.108-.758.079-1.1-.069-.821-.524-1.29-1.011-1.44-4.2-1.67-8.378-1.203-12.086 1.346-3.833 2.636-5.979 7.548-6.558 15.016-.017.235-.038.698-.065 1.369-1.027 24.69-5.457 43.57-9.16 55.41-3.623-1.917-9.07-3.78-16.076-3.248-15.545 1.183-30.76 11.833-42.84 29.99-14.73 22.135-21.095 33.002-15.848 37 3.696 2.815 7.975-1.004 15.744-7.932 6.374-5.685 15.103-13.47 27.575-21.265 8.742-5.463 14.846-3.014 17.154-1.096l-1.422 2.445.083-.028c-11.033 18.826-25.179 33.124-42.106 42.504-2.857 1.584-5.561 3.365-8.424 5.249-2.113 1.391-4.298 2.831-6.596 4.215l-.583.357c-2.957 1.788-4.282 1.605-8.677.999l-1.085-.149c-2.818-.393-5.622.341-7.691 2.011-3.74 3.02-3.384 6.472-3.124 8.993l.048.479c.193 1.991 1.361 3.847 3.29 5.227 2.45 1.754 5.693 2.44 8.452 1.786.962-.22 1.703-.462 2.298-.657l.265-.092.2.128c1.014.643 3.127 1.982 7.041 3.523 8.83 3.48 16.97 3.405 25.588 3.335 1.24-.011 2.492-.022 3.756-.022 3.219 0 6.46-.214 9.634-.637 17.02-2.303 42.703-23.078 61.293-43.24.684 4.39 2.438 13.218 4.922 21.93 1.543 5.41 6.236 21.875 12.776 23.013.122.021.262.035.415.035.456 0 1.034-.128 1.647-.58 3.66-2.707 7.006-16.985 10.53-44.935.116-.927.21-1.669.28-2.187 2.235-16.766 1.888-38.541-11.57-49.795zm-35.56-72.674c.027-.631.045-1.067.061-1.288.523-6.753 2.354-11.119 5.596-13.348 2.945-2.026 6.248-2.46 9.583-1.268-.012.102-.028.213-.041.308-.055.39-.125.878-.125 1.405 0 11.408 5.45 16.947 17.14 17.411 5.123 13.28 6.148 34.577 2.886 59.986-.05.386-.088.682-.112.892-.087.555-.634 4.02-1.363 7.1-.192-.134-.376-.275-.574-.405-6.107-4.045-13.943-5.762-22.673-4.974-7.277.66-14.944 3.102-21.036 6.7-2.69 1.59-4.983 3.45-6.91 5.318a185.987 185.987 0 007.444-19.207l.016.01.43-1.335c3.822-11.865 8.603-31.437 9.678-57.305zm-44.019 87.968c-12.633 7.895-21.444 15.755-27.878 21.492-6.657 5.938-10.675 9.52-12.904 7.822-4.154-3.165 6.741-19.539 16.355-33.986 11.692-17.571 26.306-27.87 41.15-29 6.706-.516 11.86 1.348 15.197 3.179-1.136 3.59-5.373 16.312-11.933 28.364-.225.363-.425.698-.586.977-2.59-1.906-9.261-5.184-19.4 1.152zm-1.011 78.25c-3.076.41-6.217.619-9.338.619-1.27 0-2.527.01-3.775.021-8.396.07-16.323.14-24.75-3.18-3.717-1.463-5.708-2.725-6.665-3.332-.594-.376-.865-.548-1.262-.563l-.147-.005-.143.033c-.168.038-.349.1-.553.176l-.249.086c-.581.19-1.24.406-2.11.605-2.124.502-4.733-.059-6.647-1.428-1.395-1-2.235-2.286-2.365-3.626l-.05-.492c-.253-2.451-.492-4.767 2.305-7.026 1.591-1.284 3.77-1.842 5.985-1.536l1.084.148c4.467.617 6.504.899 10.143-1.303l.581-.355c2.33-1.404 4.534-2.855 6.666-4.26 2.826-1.86 5.496-3.617 8.28-5.16 17.944-9.943 32.814-25.272 44.227-45.55 2.549-.758 15.546-4.117 26.01 2.701 8.013 5.22 12.72 15.142 14.006 29.479-25.44 28.071-49.065 42.303-61.233 43.949zm89.944-44.045c-.07.521-.164 1.269-.281 2.201-4.17 33.079-7.544 41.87-9.641 43.42-.148.109-.27.152-.352.14-7.896-1.374-15.9-40.358-16.163-45.337l-.258-2.558c-1.612-13.97-6.584-23.76-14.807-29.118-9.557-6.227-20.727-4.699-25.746-3.535l.143-.264c1.806-2.912 5.998-8.738 12.668-12.68 11.568-6.83 29.481-9.639 41.341-1.787 11.843 7.842 16.372 24.965 13.096 49.518z" fill="#111"/>
</svg>