<svg xmlns="http://www.w3.org/2000/svg" width="288.678" height="29.552" viewBox="0 0 288.678 29.552">
  <path d="M30.859 1.109c.211.396.337.753.376 1.069.04.317.06.779.06 1.387V25.55c0 1.822-.502 2.893-1.506 3.209-.502.158-1.136.237-1.901.237s-1.373-.065-1.822-.197-.792-.291-1.029-.476c-.238-.185-.423-.449-.555-.792-.133-.449-.198-1.136-.198-2.061V12.201c-.66.819-1.624 2.119-2.892 3.902-1.268 1.782-2.074 2.898-2.417 3.347-.343.45-.581.76-.713.932s-.455.409-.971.713a3.214 3.214 0 01-1.663.455 3.238 3.238 0 01-1.625-.416c-.488-.277-.838-.548-1.05-.812l-.316-.436c-.528-.66-1.571-2.066-3.13-4.22-1.559-2.151-2.403-3.308-2.535-3.466v13.35c0 .608-.02 1.063-.06 1.367-.039.304-.165.641-.376 1.01-.396.713-1.426 1.069-3.09 1.069-1.611 0-2.614-.356-3.011-1.069-.212-.369-.337-.713-.376-1.029C.02 26.581 0 26.105 0 25.472V3.486c0-.607.02-1.062.06-1.367.039-.303.164-.653.376-1.05C.832.383 1.861.04 3.525.04c.713 0 1.327.086 1.842.257.516.173.852.35 1.011.535l.237.237 8.992 11.806c4.489-5.942 7.487-9.864 8.993-11.766C25.048.396 26.111.04 27.788.04c1.678 0 2.701.356 3.071 1.069zM54.588 16.104c0 1.624-.403 2.826-1.209 3.604-.806.779-1.696 1.169-2.674 1.169h-9.388c0 .739.436 1.36 1.307 1.861.872.502 1.743.753 2.614.753 1.532 0 2.733-.158 3.605-.476l.436-.158c.634-.29 1.162-.436 1.585-.436.845 0 1.57.594 2.179 1.782.343.713.515 1.321.515 1.822 0 2.351-2.812 3.525-8.438 3.525-1.955 0-3.691-.336-5.21-1.01s-2.7-1.564-3.545-2.674c-1.664-2.14-2.496-4.529-2.496-7.17 0-3.328 1.076-5.988 3.229-7.982s4.84-2.991 8.062-2.991c3.671 0 6.364 1.295 8.081 3.883a8.058 8.058 0 011.347 4.498zm-8.359 1.167c1.003 0 1.505-.422 1.505-1.268 0-.607-.231-1.096-.693-1.466-.462-.369-1.123-.555-1.98-.555-.858 0-1.71.351-2.556 1.05-.845.7-1.268 1.446-1.268 2.238h4.992zM63.976 10.934c1.241-1.875 2.733-2.812 4.477-2.812 2.694 0 4.701 1.148 6.021 3.446a13.4 13.4 0 011.05-1.248c.409-.436 1.062-.911 1.961-1.426.897-.515 1.822-.772 2.773-.772 2.112 0 3.882.812 5.308 2.437 1.427 1.624 2.14 4.312 2.14 8.061v6.933c0 .608-.021 1.063-.06 1.367-.04.304-.165.653-.377 1.05-.343.713-1.36 1.069-3.05 1.069-1.664 0-2.681-.369-3.05-1.109-.186-.396-.298-.746-.337-1.05-.04-.303-.06-.759-.06-1.366v-6.933c0-2.298-.819-3.446-2.456-3.446-.925 0-1.552.304-1.882.911s-.495 1.466-.495 2.574v6.933c0 .634-.02 1.097-.06 1.387-.039.291-.165.634-.376 1.03-.37.713-1.4 1.069-3.09 1.069-1.664 0-2.681-.369-3.051-1.109-.185-.396-.297-.746-.337-1.05-.039-.303-.059-.759-.059-1.366v-6.933c0-2.298-.819-3.446-2.456-3.446-1.585 0-2.377 1.148-2.377 3.446v7.012c0 .607-.021 1.063-.06 1.366-.04.305-.165.654-.376 1.05-.396.688-1.427 1.03-3.091 1.03-1.663 0-2.681-.356-3.05-1.069-.186-.396-.297-.739-.337-1.03-.039-.29-.06-.753-.06-1.387V11.607c0-.607.021-1.063.06-1.367.04-.304.165-.64.377-1.01.396-.714 1.333-1.07 2.812-1.07 1.479 0 2.442.238 2.892.714.451.475.676 1.162.676 2.06zM93.607 10.775c2.218-2.061 4.754-3.09 7.605-3.09 2.853 0 5.374 1.023 7.566 3.069 2.191 2.047 3.288 4.655 3.288 7.824 0 2.192-.568 4.14-1.703 5.843-1.136 1.703-2.516 2.958-4.14 3.764-1.625.806-3.308 1.208-5.051 1.208s-3.434-.429-5.071-1.287-3.018-2.126-4.14-3.803c-1.122-1.678-1.684-3.572-1.684-5.686.002-3.168 1.112-5.782 3.33-7.842zm4.952 10.676c.846.647 1.704.971 2.575.971.872 0 1.743-.33 2.614-.99.872-.66 1.308-1.638 1.308-2.932s-.41-2.258-1.229-2.892-1.703-.951-2.653-.951c-.951 0-1.836.33-2.654.99-.819.66-1.229 1.631-1.229 2.912s.423 2.246 1.268 2.892zM136.073 5.863c.687 1.399 1.03 2.958 1.03 4.674 0 1.718-.344 3.269-1.03 4.655-.688 1.386-1.571 2.489-2.654 3.308-2.192 1.69-4.464 2.535-6.813 2.535h-4.952v4.477c0 .607-.02 1.063-.06 1.366-.039.304-.165.654-.376 1.05-.37.713-1.4 1.069-3.09 1.069-1.849 0-2.932-.488-3.248-1.465-.159-.449-.238-1.136-.238-2.061V3.486c0-.607.021-1.062.06-1.367.04-.303.165-.653.377-1.05C115.447.356 116.478 0 118.168 0h8.477c2.324 0 4.582.846 6.774 2.535 1.083.819 1.967 1.929 2.654 3.328zm-7.091 7.289c.766-.581 1.148-1.452 1.148-2.615 0-1.161-.383-2.04-1.148-2.634-.767-.595-1.559-.892-2.377-.892h-4.952v7.012h4.991c.794 0 1.572-.29 2.338-.871zM153.859 8.398c.501.158.917.43 1.248.812.33.384.495.997.495 1.843 0 .845-.251 1.77-.753 2.772-.502 1.004-1.228 1.506-2.179 1.506-.476 0-.931-.105-1.366-.317-.437-.211-1.011-.316-1.724-.316s-1.38.251-2.001.752c-.62.502-.931 1.109-.931 1.822v8.319c0 .607-.02 1.063-.06 1.366-.039.305-.165.654-.376 1.05-.396.688-1.426 1.03-3.09 1.03-1.268 0-2.179-.224-2.733-.674-.423-.369-.66-.937-.713-1.703V11.607c0-.607.02-1.063.06-1.367.039-.304.151-.64.336-1.01.37-.714 1.4-1.07 3.091-1.07 1.584 0 2.574.305 2.971.911.29.423.436.859.436 1.308a6.66 6.66 0 01.574-.674c.251-.264.786-.62 1.604-1.069.818-.448 1.538-.673 2.159-.673.62 0 1.142.033 1.564.099.424.066.886.178 1.388.336zM159.325 10.775c2.219-2.061 4.754-3.09 7.606-3.09 2.852 0 5.374 1.023 7.566 3.069 2.191 2.047 3.287 4.655 3.287 7.824 0 2.192-.567 4.14-1.703 5.843s-2.516 2.958-4.14 3.764-3.308 1.208-5.051 1.208-3.434-.429-5.07-1.287c-1.638-.858-3.018-2.126-4.14-3.803-1.123-1.678-1.684-3.572-1.684-5.686.002-3.168 1.111-5.782 3.329-7.842zm4.952 10.676c.845.647 1.703.971 2.575.971.871 0 1.742-.33 2.614-.99.871-.66 1.307-1.638 1.307-2.932s-.409-2.258-1.228-2.892c-.819-.634-1.703-.951-2.654-.951-.95 0-1.836.33-2.654.99s-1.228 1.631-1.228 2.912.423 2.246 1.268 2.892zM189.63 28.958c-2.668 0-4.879-1.011-6.636-3.03-1.756-2.021-2.634-4.482-2.634-7.389v-6.932c0-.634.02-1.096.06-1.387.039-.29.151-.634.336-1.03.37-.713 1.4-1.069 3.091-1.069 1.848 0 2.931.502 3.248 1.505.158.423.237 1.097.237 2.021v6.933c0 1.083.311 1.928.931 2.535.621.607 1.452.911 2.496.911 1.043 0 1.888-.316 2.535-.951.647-.634.971-1.465.971-2.495v-7.012c0-.607.02-1.062.06-1.367.039-.303.164-.653.376-1.049.343-.687 1.36-1.03 3.051-1.03 1.663 0 2.68.356 3.05 1.069.185.396.297.746.337 1.05s.06.76.06 1.367V25.63c0 .582-.02 1.024-.06 1.327-.04.305-.165.641-.376 1.011-.396.687-1.413 1.029-3.051 1.029-1.611 0-2.602-.316-2.971-.95-.265-.449-.396-.99-.396-1.624-.105.185-.344.449-.713.792a9.7 9.7 0 01-1.069.871c-.9.582-1.877.872-2.933.872zM216.487 15.172l-2.574-.158v5.467c0 .713.111 1.229.336 1.545.225.317.646.476 1.268.476s1.096.02 1.426.06c.33.039.68.165 1.051.376.607.344.91 1.229.91 2.654 0 1.664-.369 2.681-1.109 3.05-.396.186-.746.298-1.049.337-.305.04-.746.06-1.328.06-2.746 0-4.832-.62-6.258-1.862-1.427-1.24-2.14-3.34-2.14-6.298v-5.863c-.502.079-1.043.119-1.624.119s-1.063-.225-1.446-.674c-.383-.448-.574-1.214-.574-2.298 0-1.082.065-1.867.198-2.356.132-.488.317-.838.555-1.05.422-.343.951-.515 1.585-.515l1.307.158V4.32c0-.607.02-1.057.06-1.348.04-.29.165-.606.376-.95.344-.66 1.36-.99 3.051-.99 1.796 0 2.864.488 3.208 1.466.133.423.199 1.096.199 2.02v3.883c1.16-.105 2.039-.158 2.633-.158.596 0 1.043.02 1.348.059.303.04.654.166 1.049.377.688.344 1.031 1.36 1.031 3.05 0 1.664-.357 2.681-1.07 3.051-.396.185-.746.297-1.049.337-.307.035-.762.055-1.37.055zM241.867 1.118c5.417 0 8.958 3.289 8.958 8.339s-3.541 8.319-8.978 8.319h-7.372v11.261h-1.528V1.118h8.92zm-7.391 15.266h7.14c4.701 0 7.662-2.632 7.662-6.927 0-4.314-2.941-6.946-7.662-6.946h-7.14v13.873zM252.192 23.62c0-3.444 2.477-5.418 7.12-5.785l6.927-.484v-1.799c0-3.483-2.108-5.592-5.669-5.592-3.502 0-5.708 1.761-6.211 4.798h-1.451c.388-3.733 3.289-6.152 7.682-6.152 4.411 0 7.159 2.632 7.159 6.83v13.602h-1.451v-4.314h-.039c-1.025 2.728-4.044 4.624-7.41 4.624-3.928-.001-6.657-2.342-6.657-5.728zm14.047-2.052v-2.979l-6.714.484c-3.772.29-5.823 1.876-5.823 4.547 0 2.573 2.244 4.411 5.359 4.411 3.966 0 7.178-2.883 7.178-6.463zM271.052 18.976c0-6.191 3.521-10.37 8.552-10.37 3.734 0 6.637 2.457 7.526 5.592h.039V1.118h1.509v27.919h-1.412v-5.398h-.058c-.929 3.251-3.851 5.708-7.585 5.708-5.03 0-8.571-4.18-8.571-10.371zm1.51-.019c0 5.397 2.979 9.035 7.255 9.035 4.314 0 7.372-3.676 7.372-9.017 0-5.34-3.058-9.016-7.372-9.016-4.276.001-7.255 3.619-7.255 8.998z"/>
</svg>
